<svg xmlns="http://www.w3.org/2000/svg" version="1.1" xmlns:xlink="http://www.w3.org/1999/xlink" xmlns:svgjs="http://svgjs.dev/svgjs" width="2000" height="272" viewBox="0 0 2000 272"><g transform="matrix(1,0,0,1,-1.2121212121212466,1.1301028079807907)"><svg viewBox="0 0 396 54" data-background-color="#333366" preserveAspectRatio="xMidYMid meet" height="272" width="2000" xmlns="http://www.w3.org/2000/svg" xmlns:xlink="http://www.w3.org/1999/xlink"><g id="tight-bounds" transform="matrix(1,0,0,1,0.2400000000000091,-0.22435864570206832)"><svg viewBox="0 0 395.52 54.44871729140411" height="54.44871729140411" width="395.52"><g><svg viewBox="0 0 486.02224680773526 66.90758473343298" height="54.44871729140411" width="395.52"><g transform="matrix(1,0,0,1,90.50224680773529,9.24699615346288)"><svg viewBox="0 0 395.52 48.41359242650722" height="48.41359242650722" width="395.52"><g id="textblocktransform"><svg viewBox="0 0 395.52 48.41359242650722" height="48.41359242650722" width="395.52" id="textblock"><g><svg viewBox="0 0 395.52 48.41359242650722" height="48.41359242650722" width="395.52"><g transform="matrix(1,0,0,1,0,0)"><svg width="395.52" viewBox="2.25 -36.45 301.68 36.85" height="48.41359242650722" data-palette-color="#ffff33"><g class="undefined-text-0" data-fill-palette-color="primary" id="text-0"><path d="M20 0.4L20 0.4Q17.25 0.4 14.6-0.3 11.95-1 10-2.25L10-2.25Q7.8-3.65 6.03-6.2 4.25-8.75 3.25-11.78 2.25-14.8 2.25-17.6L2.25-17.6Q2.25-21.35 3.85-24.9 5.45-28.45 8.35-31.35L8.35-31.35Q10.55-33.55 13.3-34.75L13.3-34.75Q16.55-36.1 19.85-36.1L19.85-36.1Q22.7-36.1 25.55-35L25.55-35Q27.4-34.3 28.7-33.23 30-32.15 31.55-30.4L31.55-30.4 33.05-28.55Q33.65-27.8 33.65-27L33.65-27Q33.65-26 32.85-25.25 32.05-24.5 31-24.5L31-24.5Q29.95-24.5 29.15-25.45L29.15-25.45 27.3-27.7Q26.6-28.45 25.65-29.18 24.7-29.9 23.75-30.3L23.75-30.3Q21.6-31.2 19.45-31.05L19.45-31.05Q14.9-30.65 11.8-27.7L11.8-27.7Q7.25-23.3 7.25-17.6L7.25-17.6Q7.25-14.55 8.88-11.23 10.5-7.9 12.7-6.45L12.7-6.45Q14.05-5.6 15.95-5.1 17.85-4.6 19.85-4.6L19.85-4.6Q25.9-4.6 27.75-7.95L27.75-7.95Q28.1-8.55 28.6-10.25L28.6-10.25 29.1-11.85Q29.4-12.65 30.03-13.1 30.65-13.55 31.35-13.55L31.35-13.55Q32.35-13.55 33.15-12.85 33.95-12.15 33.95-11.05L33.95-11.05Q33.95-10.6 33.8-10.15L33.8-10.15 33.45-9.1Q32.6-6.5 32.15-5.55L32.15-5.55Q30.6-2.85 27.8-1.4 25 0.05 21.4 0.35L21.4 0.35Q20.95 0.4 20 0.4L20 0.4ZM51.15 0.15L51.15 0.15Q48.55-0.2 46.4-1.23 44.25-2.25 42.75-3.75 41.25-5.25 40.12-7.15 39-9.05 38.52-11.13 38.05-13.2 37.87-15.4 37.7-17.6 37.95-19.65L37.95-19.65Q38.25-22.25 39.12-24.7 40-27.15 41.5-29.33 43-31.5 44.97-33.02 46.95-34.55 49.6-35.25 52.25-35.95 54.9-36.05L54.9-36.05Q56.1-36.1 57.4-35.95L57.4-35.95Q59.85-35.65 61.35-35.15L61.35-35.15Q64.8-34 67.07-31.63 69.35-29.25 70.35-26.38 71.35-23.5 71.37-20.28 71.4-17.05 70.62-13.95 69.85-10.85 68.25-8 66.65-5.15 64.05-3.13 61.45-1.1 58.07-0.23 54.7 0.65 51.15 0.15L51.15 0.15ZM51.9-4.95L51.9-4.95Q56.55-4.1 60.55-6.9L60.55-6.9Q64.6-9.7 65.85-15.3L65.85-15.3Q66.6-18.7 66.2-21.73 65.8-24.75 64.1-27.03 62.4-29.3 60-30.25L60-30.25Q58.85-30.7 58.17-30.85 57.5-31 56.55-31L56.55-31Q55.8-31 54.9-31.05L54.9-31.05Q53.95-31.1 52.4-30.9L52.4-30.9Q49.55-30.55 46.55-27.38 43.55-24.2 43-19.1L43-19.1Q42.6-15.55 43.37-12.45 44.15-9.35 46.4-7.45L46.4-7.45Q48.6-5.6 51.9-4.95L51.9-4.95ZM81.3 0.1L81.3 0.1Q80.55 0.15 79.9-0.25L79.9-0.25Q79.1-0.5 78.62-1.18 78.15-1.85 78.15-2.7L78.15-2.7Q78.15-4.3 78.4-18.35L78.4-18.35Q78.45-20.65 78.25-25.7L78.25-25.7Q78.05-30.65 78.2-33.4L78.2-33.4Q78.25-34.45 79.02-35.15 79.8-35.85 80.8-35.8L80.8-35.8 81-35.8Q81.45-36.05 81.95-36.1L81.95-36.1Q84.25-36.3 85.6-36.38 86.95-36.45 89.4-36.45 91.85-36.45 93.6-36.13 95.35-35.8 97.47-35.05 99.6-34.3 101.25-33.1L101.25-33.1Q104.75-30.55 106.37-26.58 108-22.6 107.85-18.2L107.85-18.2Q107.7-13.95 105.95-10L105.95-10Q104.15-6.1 101-3.6L101-3.6Q97.25-0.6 90.85-0.1L90.85-0.1Q88.95 0.05 85.85 0.05L85.85 0.05Q82.5 0.05 81.3 0.1L81.3 0.1ZM83.2-4.95L85.85-4.95Q88.8-4.95 90.45-5.1L90.45-5.1Q95-5.45 97.6-7.5L97.6-7.5Q99.8-9.25 101.12-12.18 102.45-15.1 102.55-18.4L102.55-18.4Q102.7-21.7 101.55-24.5L101.55-24.5Q100.35-27.35 98.05-29L98.05-29Q96.2-30.35 93.65-30.95L93.65-30.95Q91.05-31.55 88.6-31.48 86.15-31.4 83.15-31.15L83.15-31.15Q83.1-29.7 83.25-25.9L83.25-25.9Q83.45-20.45 83.4-18.25L83.4-18.25Q83.4-16.75 83.35-14.08 83.3-11.4 83.25-9.15 83.2-6.9 83.2-4.95L83.2-4.95ZM138.59-0.2L138.59-0.2Q131.84-0.1 117.34-0.35L117.34-0.35Q116.34-0.35 115.62-1.1 114.89-1.85 114.89-2.85L114.89-2.85Q114.59-3.45 114.59-4.1L114.59-4.1Q114.69-7.5 114.69-13.9 114.69-20.3 114.74-22.6L114.74-22.6Q114.74-23.45 114.69-25.58 114.64-27.7 114.69-29.53 114.74-31.35 114.99-32.95L114.99-32.95Q115.09-33.65 115.59-34.2 116.09-34.75 116.79-34.95L116.79-34.95Q117.44-35.55 118.39-35.6L118.39-35.6Q122.09-35.7 128.97-35.75 135.84-35.8 138.34-35.8L138.34-35.8Q139.39-35.8 140.12-35.08 140.84-34.35 140.84-33.3 140.84-32.25 140.12-31.53 139.39-30.8 138.34-30.8L138.34-30.8Q135.69-30.8 129.42-30.75 123.14-30.7 119.74-30.65L119.74-30.65Q119.59-29.95 119.67-26.83 119.74-23.7 119.74-22.5L119.74-22.5 119.74-20.45Q122.19-20.6 124.97-20.6 127.74-20.6 131.27-20.55 134.79-20.5 136.49-20.5L136.49-20.5Q137.54-20.5 138.27-19.78 138.99-19.05 138.99-18 138.99-16.95 138.27-16.23 137.54-15.5 136.49-15.5L136.49-15.5Q134.74-15.5 131.22-15.55 127.69-15.6 124.94-15.6 122.19-15.6 119.69-15.45L119.69-15.45Q119.69-8.35 119.64-5.3L119.64-5.3Q131.84-5.1 138.49-5.2L138.49-5.2Q139.54-5.2 140.29-4.5 141.04-3.8 141.04-2.75 141.04-1.7 140.34-0.95 139.64-0.2 138.59-0.2L138.59-0.2ZM163.04 0.4L163.04 0.4Q160.29 0.4 157.64-0.3 154.99-1 153.04-2.25L153.04-2.25Q150.84-3.65 149.07-6.2 147.29-8.75 146.29-11.78 145.29-14.8 145.29-17.6L145.29-17.6Q145.29-21.35 146.89-24.9 148.49-28.45 151.39-31.35L151.39-31.35Q153.59-33.55 156.34-34.75L156.34-34.75Q159.59-36.1 162.89-36.1L162.89-36.1Q165.74-36.1 168.59-35L168.59-35Q170.44-34.3 171.74-33.23 173.04-32.15 174.59-30.4L174.59-30.4 176.09-28.55Q176.69-27.8 176.69-27L176.69-27Q176.69-26 175.89-25.25 175.09-24.5 174.04-24.5L174.04-24.5Q172.99-24.5 172.19-25.45L172.19-25.45 170.34-27.7Q169.64-28.45 168.69-29.18 167.74-29.9 166.79-30.3L166.79-30.3Q164.64-31.2 162.49-31.05L162.49-31.05Q157.94-30.65 154.84-27.7L154.84-27.7Q150.29-23.3 150.29-17.6L150.29-17.6Q150.29-14.55 151.92-11.23 153.54-7.9 155.74-6.45L155.74-6.45Q157.09-5.6 158.99-5.1 160.89-4.6 162.89-4.6L162.89-4.6Q168.94-4.6 170.79-7.95L170.79-7.95Q171.14-8.55 171.64-10.25L171.64-10.25 172.14-11.85Q172.44-12.65 173.07-13.1 173.69-13.55 174.39-13.55L174.39-13.55Q175.39-13.55 176.19-12.85 176.99-12.15 176.99-11.05L176.99-11.05Q176.99-10.6 176.84-10.15L176.84-10.15 176.49-9.1Q175.64-6.5 175.19-5.55L175.19-5.55Q173.64-2.85 170.84-1.4 168.04 0.05 164.44 0.35L164.44 0.35Q163.99 0.4 163.04 0.4L163.04 0.4ZM207.14-1.7L206.14-5.3 205.24-7.8Q204.99-8.8 204.54-9.93 204.09-11.05 203.59-11.8L203.59-11.8Q202.64-13.15 200.86-13.93 199.09-14.7 195.44-14.9L195.44-14.9Q194.94-14.9 194.44-14.85L194.44-14.85Q193.94-14.85 192.46-14.7 190.99-14.55 190.34-14.5L190.34-14.5Q188.94-14.35 188.24-14.45L188.24-14.45Q188.34-7.15 188.34-2.55L188.34-2.55Q188.34-1.5 187.61-0.78 186.89-0.05 185.84-0.05 184.79-0.05 184.06-0.78 183.34-1.5 183.34-2.55L183.34-2.55Q183.34-7.45 183.21-17.28 183.09-27.1 183.09-32L183.09-32Q183.09-32.85 183.64-33.55L183.64-33.55Q183.79-34.25 184.34-34.75 184.89-35.25 185.64-35.35L185.64-35.35Q188.49-35.8 192.04-35.88 195.59-35.95 200.29-35.35L200.29-35.35Q201.99-35.1 203.46-34.68 204.94-34.25 206.56-33.43 208.19-32.6 209.31-31.53 210.44-30.45 211.14-28.83 211.84-27.2 211.74-25.2L211.74-25.2Q211.54-19.75 205.44-17.05L205.44-17.05Q206.74-16.05 207.69-14.65L207.69-14.65Q208.39-13.6 209.04-12.05 209.69-10.5 210.06-9.28 210.44-8.05 211.01-6.15 211.59-4.25 211.94-3.1L211.94-3.1Q212.24-2.15 211.74-1.23 211.24-0.3 210.26 0 209.29 0.3 208.36-0.2 207.44-0.7 207.14-1.7L207.14-1.7ZM188.19-19.75L188.79-19.85Q189.14-19.9 189.64-19.9L189.64-19.9Q190.44-19.95 191.74-19.95L191.74-19.95Q194.24-20 194.94-19.95L194.94-19.95 195.44-19.95Q199.79-20.25 202.59-21.3L202.59-21.3Q206.64-22.75 206.74-25.4L206.74-25.4Q206.89-29.2 199.49-30.45L199.49-30.45Q194.39-31.3 188.09-30.65L188.09-30.65Q188.09-26.45 188.19-19.75L188.19-19.75ZM219.59-1.5L219.59-1.5Q219.19-0.5 218.21-0.1 217.24 0.3 216.26-0.1 215.29-0.5 214.89-1.48 214.49-2.45 214.89-3.4L214.89-3.4Q215.89-5.85 217.51-10.85 219.14-15.85 219.84-17.6L219.84-17.6Q220.19-18.6 222.69-24.7L222.69-24.7Q225.04-30.7 226.34-34.45L226.34-34.45Q226.69-35.45 227.61-35.93 228.54-36.4 229.54-36.05L229.54-36.05Q229.99-35.9 230.34-35.6L230.34-35.6Q231.34-35.25 231.74-34.25L231.74-34.25 244.19-3.5Q244.59-2.5 244.19-1.53 243.79-0.55 242.81-0.15 241.84 0.25 240.86-0.15 239.89-0.55 239.49-1.5L239.49-1.5 235.74-11.2Q233.69-11.1 233.44-11.1L233.44-11.1Q226.69-10.85 222.84-10.85L222.84-10.85Q220.59-4.25 219.59-1.5L219.59-1.5ZM224.69-15.95L224.69-15.95Q228.89-16 233.69-16.15L233.69-16.15 229.14-27.15 224.69-15.95ZM249.53-2.4L249.53-2.4Q249.53-4.35 249.61-11.4 249.68-18.45 249.61-22.98 249.53-27.5 249.18-32.2L249.18-32.2Q249.18-32.5 249.23-32.8L249.23-32.8Q249.18-33 249.18-33.15L249.18-33.15Q249.18-34.2 249.88-34.95 250.58-35.7 251.63-35.7L251.63-35.7Q265.53-35.95 271.98-35.7L271.98-35.7Q273.03-35.65 273.73-34.9 274.43-34.15 274.38-33.1 274.33-32.05 273.58-31.35 272.83-30.65 271.78-30.7L271.78-30.7Q265.48-30.95 254.28-30.75L254.28-30.75Q254.58-26.05 254.63-20.4L254.63-20.4Q257.93-20.4 269.48-20.55L269.48-20.55Q270.53-20.55 271.28-19.83 272.03-19.1 272.03-18.07 272.03-17.05 271.31-16.3 270.58-15.55 269.58-15.55L269.58-15.55Q257.98-15.4 254.63-15.4L254.63-15.4Q254.63-13.75 254.58-9.28 254.53-4.8 254.53-2.4L254.53-2.4Q254.53-1.35 253.81-0.63 253.08 0.1 252.03 0.1 250.98 0.1 250.26-0.63 249.53-1.35 249.53-2.4L249.53-2.4ZM291.63-2.5L291.63-2.5Q291.63-1.45 290.88-0.75 290.13-0.05 289.08-0.05 288.03-0.05 287.33-0.8 286.63-1.55 286.63-2.6L286.63-2.6Q286.68-4.35 286.58-16.75L286.58-16.75Q286.53-25.8 286.88-30.75L286.88-30.75Q281.43-30.8 277.68-30.65L277.68-30.65Q276.63-30.6 275.88-31.33 275.13-32.05 275.08-33.08 275.03-34.1 275.76-34.85 276.48-35.6 277.48-35.65L277.48-35.65Q281.78-35.8 289.43-35.75 297.08-35.7 301.38-35.75L301.38-35.75Q302.43-35.75 303.18-35.05 303.93-34.35 303.93-33.3 303.93-32.25 303.23-31.5 302.53-30.75 301.48-30.75L301.48-30.75Q297.93-30.7 291.88-30.7L291.88-30.7Q291.53-25.9 291.58-16.8L291.58-16.8Q291.68-4.35 291.63-2.5L291.63-2.5Z" fill="#ffff33" data-fill-palette-color="primary"></path></g></svg></g></svg></g></svg></g></svg></g><g><svg viewBox="0 0 79.07295956205517 66.90758473343298" height="66.90758473343298" width="79.07295956205517"><g><svg xmlns="http://www.w3.org/2000/svg" xmlns:xlink="http://www.w3.org/1999/xlink" version="1.1" x="0" y="0" viewBox="0 13.422 100 84.615" enable-background="new 0 0 100 100" xml:space="preserve" height="66.90758473343298" width="79.07295956205517" class="icon-icon-0" data-fill-palette-color="accent" id="icon-0"><g fill="#ffffff" data-fill-palette-color="accent"><path d="M0 13.422v84.615h100V13.422H0zM92.308 90.346H7.692V28.807h84.615V90.346z" fill="#ffffff" data-fill-palette-color="accent"></path><rect x="42.002" y="66.065" width="26.488" height="7.775" fill="#ffffff" data-fill-palette-color="accent"></rect><polygon points="15.521,66.064 41.988,55.549 41.988,55.527 42.002,55.533 42.002,47.181 41.988,47.187 41.988,47.165    15.521,36.65 15.515,45.014 31.487,51.357 15.515,57.701  " fill="#ffffff" data-fill-palette-color="accent"></polygon></g></svg></g></svg></g></svg></g><defs></defs></svg><rect width="395.52" height="54.44871729140411" fill="none" stroke="none" visibility="hidden"></rect></g></svg></g></svg>